HIERARCHY
ROOT joint_0
{
	OFFSET 0.000000 0.000000 0.000000
	CHANNELS 6 Xposition Yposition Zposition Zrotation Yrotation Xrotation 
	JOINT joint_1
	{
		OFFSET 5.091736 1.614004 124.993042
		CHANNELS 3 Zrotation Yrotation Xrotation
		JOINT joint_2
		{
			OFFSET -7.754517 4.363039 113.797974
			CHANNELS 3 Zrotation Yrotation Xrotation
			JOINT joint_3
			{
				OFFSET -8.706238 5.370684 113.558960
				CHANNELS 3 Zrotation Yrotation Xrotation
				JOINT joint_4
				{
					OFFSET 2.800659 5.843341 158.209106
					CHANNELS 3 Zrotation Yrotation Xrotation
					JOINT joint_5
					{
						OFFSET 20.525452 8.617594 92.185913
						CHANNELS 3 Zrotation Yrotation Xrotation
						End Site
						{
							OFFSET 0.000000 0.000000 0.000000
						}
					}
				}
				JOINT joint_6
				{
					OFFSET -4.183167 -30.671114 90.057007
					CHANNELS 3 Zrotation Yrotation Xrotation
					JOINT joint_7
					{
						OFFSET -24.729675 -138.200195 -6.097900
						CHANNELS 3 Zrotation Yrotation Xrotation
						JOINT joint_8
						{
							OFFSET 16.966858 -51.567780 -315.633057
							CHANNELS 3 Zrotation Yrotation Xrotation
							JOINT joint_9
							{
								OFFSET 129.835388 -40.459091 176.646973
								CHANNELS 3 Zrotation Yrotation Xrotation
								End Site
								{
									OFFSET 0.000000 0.000000 0.000000
								}
							}
						}
					}
				}
				JOINT joint_10
				{
					OFFSET 7.338745 37.199406 87.346069
					CHANNELS 3 Zrotation Yrotation Xrotation
					JOINT joint_11
					{
						OFFSET 20.327698 137.488367 -20.779053
						CHANNELS 3 Zrotation Yrotation Xrotation
						JOINT joint_12
						{
							OFFSET 150.763062 48.206573 -278.419922
							CHANNELS 3 Zrotation Yrotation Xrotation
							JOINT joint_13
							{
								OFFSET 12.571289 -162.355251 152.253906
								CHANNELS 3 Zrotation Yrotation Xrotation
								End Site
								{
									OFFSET 0.000000 0.000000 0.000000
								}
							}
						}
					}
				}
			}
		}
	}
	JOINT joint_14
	{
		OFFSET -7.600342 -77.970001 -95.010986
		CHANNELS 3 Zrotation Yrotation Xrotation
		JOINT joint_15
		{
			OFFSET -2.666199 -21.455009 -443.700989
			CHANNELS 3 Zrotation Yrotation Xrotation
			JOINT joint_16
			{
				OFFSET -22.487976 -19.310196 -481.059006
				CHANNELS 3 Zrotation Yrotation Xrotation
				JOINT joint_17
				{
					OFFSET 177.776611 65.723053 -82.445997
					CHANNELS 3 Zrotation Yrotation Xrotation
					End Site
					{
						OFFSET 0.000000 0.000000 0.000000
					}
				}
			}
		}
	}
	JOINT joint_18
	{
		OFFSET 17.063904 75.900681 -95.447021
		CHANNELS 3 Zrotation Yrotation Xrotation
		JOINT joint_19
		{
			OFFSET -21.510803 8.101997 -443.629944
			CHANNELS 3 Zrotation Yrotation Xrotation
			JOINT joint_20
			{
				OFFSET -7.473022 -28.501774 -481.230011
				CHANNELS 3 Zrotation Yrotation Xrotation
				JOINT joint_21
				{
					OFFSET 177.760559 -64.115177 -83.737001
					CHANNELS 3 Zrotation Yrotation Xrotation
					End Site
					{
						OFFSET 0.000000 0.000000 0.000000
					}
				}
			}
		}
	}
}
MOTION
Frames: 16
Frame Time: 0.016667
410.096832 -51.702549 1120.427979 14.168725 -1.626072 0.160564 -0.186581 0.465795 4.335809 -0.466470 0.062723 -0.810486 -0.331022 0.028869 0.736535 -0.920492 4.454926 2.132451 0.000000 0.000000 0.000000 -2.272297 3.209773 4.986247 12.402860 -0.388232 -0.117234 -179.736233 44.138670 -171.599875 0.000000 0.000000 0.000000 -3.037565 14.599164 -3.114742 5.557433 12.384278 -9.040938 70.026023 -13.266365 91.763290 0.000000 0.000000 0.000000 -11.493724 2.717326 -2.343052 -11.402933 1.026485 -0.105810 -11.030214 -4.578559 -3.386393 0.000000 0.000000 0.000000 -3.809143 -3.661322 2.139626 -3.657781 8.669104 4.158827 -2.561078 -5.258247 -3.079697 0.000000 0.000000 0.000000 
409.250671 -51.331867 1120.647949 14.367314 -1.756715 -0.023439 -0.231099 0.833432 4.745349 -0.509357 0.031290 -0.855655 -0.370194 0.075825 0.789415 -0.984403 4.799759 2.139182 0.000000 0.000000 0.000000 -2.989260 2.939562 4.584714 12.010607 -0.311062 -0.141468 -179.819281 45.451797 -169.055713 0.000000 0.000000 0.000000 -2.454838 13.668618 -2.914381 11.111462 14.272146 -10.559867 72.688465 -7.844922 86.748112 0.000000 0.000000 0.000000 -11.539343 2.700044 -2.146351 -11.460515 1.297767 -0.292787 -11.087877 -4.557339 -3.418254 0.000000 0.000000 0.000000 -3.922262 -3.961135 2.056870 -3.771326 9.419188 4.528324 -2.581968 -5.427033 -3.149352 0.000000 0.000000 0.000000 
408.722595 -50.782558 1120.817993 14.610891 -1.758459 -0.145595 -0.281953 1.119951 5.069043 -0.554014 -0.009695 -0.892064 -0.414325 0.125777 0.831883 -1.048522 5.101406 2.146884 0.000000 0.000000 0.000000 -3.612018 2.580080 4.187549 11.598366 -0.204931 -0.267420 -179.904623 46.576819 -166.792623 0.000000 0.000000 0.000000 -1.922471 12.816953 -2.638550 16.336567 16.263239 -11.724544 74.473698 -0.905019 81.986205 0.000000 0.000000 0.000000 -11.594745 2.555774 -1.988424 -11.533952 1.569605 -0.486635 -11.161680 -4.550304 -3.452290 0.000000 0.000000 0.000000 -4.034424 -4.339434 1.917528 -3.885547 10.075113 4.878304 -2.612152 -5.564908 -3.212353 0.000000 0.000000 0.000000 
408.661041 -49.942677 1120.839966 14.871465 -1.485105 -0.070161 -0.343101 1.091098 5.142504 -0.613727 -0.054990 -0.910458 -0.477755 0.153336 0.848939 -1.112392 5.364841 2.151944 0.000000 0.000000 0.000000 -4.108640 2.177331 3.725826 11.147170 -0.112696 -0.422457 179.962590 47.159370 -165.250076 0.000000 0.000000 0.000000 -1.341921 12.210963 -2.313524 20.699020 18.182030 -12.526929 75.058973 6.959857 77.375383 0.000000 0.000000 0.000000 -11.655092 2.116488 -2.004293 -11.626549 1.827623 -0.653986 -11.252784 -4.567005 -3.486244 0.000000 0.000000 0.000000 -4.088352 -4.767614 1.606312 -3.955626 10.294982 5.183950 -2.645381 -5.593739 -3.238283 0.000000 0.000000 0.000000 
408.776520 -48.841637 1120.774048 15.153037 -0.971631 0.154061 -0.415635 0.827116 5.024512 -0.689573 -0.112079 -0.916990 -0.560906 0.168455 0.846915 -1.182528 5.610742 2.168786 0.000000 0.000000 0.000000 -4.498968 1.658618 3.207591 10.578770 -0.022750 -0.655133 179.732183 47.242290 -164.244944 0.000000 0.000000 0.000000 -0.793679 11.911676 -2.023394 23.804534 19.806502 -12.995657 74.334818 14.937714 72.634696 0.000000 0.000000 0.000000 -11.715438 1.400540 -2.132864 -11.733508 2.088295 -0.824774 -11.357964 -4.597096 -3.522205 0.000000 0.000000 0.000000 -4.101909 -5.264813 1.150533 -3.996596 10.159085 5.482572 -2.689027 -5.520431 -3.232826 0.000000 0.000000 0.000000 
410.619904 -47.759750 1120.592041 15.574898 -0.628589 0.340764 -0.470783 0.794775 4.957558 -0.735338 -0.163594 -0.926220 -0.613334 0.206601 0.856701 -1.223160 5.643029 2.162286 0.000000 0.000000 0.000000 -4.771183 1.293076 2.746787 9.971574 0.123934 -0.699868 179.550031 47.647403 -163.110936 0.000000 0.000000 0.000000 -0.413244 11.861275 -1.632122 25.631434 21.270537 -13.231969 71.686071 22.850902 66.789963 0.000000 0.000000 0.000000 -11.835148 1.036438 -2.282313 -11.879258 2.284939 -0.915198 -11.497474 -4.680464 -3.553432 0.000000 0.000000 0.000000 -4.201328 -5.782648 0.823268 -4.095095 10.560029 5.603452 -2.728946 -5.680960 -3.309210 0.000000 0.000000 0.000000 
415.281281 -47.067528 1120.136963 16.227555 -0.834297 0.328263 -0.493156 1.439867 5.150760 -0.715287 -0.191717 -0.973714 -0.594808 0.311168 0.909122 -1.199703 5.237423 2.126040 0.000000 0.000000 0.000000 -4.932058 1.335287 2.401646 9.337577 0.368827 -0.238543 179.529974 49.222637 -161.148272 0.000000 0.000000 0.000000 -0.372384 12.185403 -1.186331 26.112622 22.628607 -13.218795 66.093015 31.010350 57.870017 0.000000 0.000000 0.000000 -12.076303 1.638498 -2.377896 -12.085179 2.256391 -0.811897 -11.690347 -4.838903 -3.579620 0.000000 0.000000 0.000000 -4.500508 -6.235496 0.952983 -4.323076 12.199731 5.237275 -2.755627 -6.338285 -3.556508 0.000000 0.000000 0.000000 
422.159882 -46.662121 1119.415039 17.059781 -1.431674 0.156494 -0.497797 2.584565 5.566132 -0.637659 -0.200133 -1.065028 -0.514257 0.464593 0.987296 -1.117319 4.462114 2.068937 0.000000 0.000000 0.000000 -4.992554 1.686978 2.146219 8.701115 0.698298 0.621769 179.683511 51.652830 -158.553634 0.000000 0.000000 0.000000 -0.667151 13.137588 -0.913736 24.830585 23.338317 -13.087364 56.800688 37.995121 44.675533 0.000000 0.000000 0.000000 -12.417153 2.975252 -2.418309 -12.335833 2.018721 -0.550887 -11.925306 -5.025246 -3.611998 0.000000 0.000000 0.000000 -4.975561 -6.635507 1.460699 -4.670164 14.719862 4.435101 -2.782986 -7.261961 -3.896980 0.000000 0.000000 0.000000 
431.052032 -45.697529 1119.061035 17.982034 -1.903971 -0.054243 -0.477577 3.538140 6.090146 -0.513913 -0.202255 -1.146248 -0.386211 0.585527 1.063385 -1.018092 3.763959 1.946242 0.000000 0.000000 0.000000 -4.910382 2.098971 1.991226 8.284991 1.061576 1.323886 179.951710 53.556944 -156.604131 0.000000 0.000000 0.000000 -1.066655 14.240709 -0.806922 22.220101 22.923657 -12.840600 46.266788 39.504605 31.034943 0.000000 0.000000 0.000000 -12.759715 4.131370 -2.392165 -12.601395 2.094328 -0.395941 -12.170764 -5.216228 -3.642897 0.000000 0.000000 0.000000 -5.493390 -7.243316 1.708805 -5.084859 17.589306 4.091891 -2.789048 -8.094980 -4.193229 0.000000 0.000000 0.000000 
442.131927 -43.342491 1119.410034 18.981533 -1.853098 -0.169457 -0.401098 3.766059 6.644428 -0.338834 -0.210990 -1.175853 -0.207043 0.621086 1.132875 -0.935874 3.462559 1.698812 0.000000 0.000000 0.000000 -4.623596 2.481831 1.851039 8.035046 1.484332 1.563322 -179.842309 54.058637 -156.254262 0.000000 0.000000 0.000000 -1.327269 14.830924 -0.861241 19.419496 21.603028 -11.944289 37.809626 36.775374 20.872735 0.000000 0.000000 0.000000 -13.058154 4.541665 -2.374567 -12.877640 2.705240 -0.428268 -12.419432 -5.420907 -3.664299 0.000000 0.000000 0.000000 -5.931223 -8.414121 1.057600 -5.522617 20.748693 5.083977 -2.699709 -8.748675 -4.384254 0.000000 0.000000 0.000000 
455.464325 -39.910423 1120.219971 20.056964 -1.461485 -0.268338 -0.261285 3.496403 7.354050 -0.099465 -0.211869 -1.216823 0.040672 0.600193 1.192984 -0.859639 3.406497 1.344196 0.000000 0.000000 0.000000 -4.138631 2.937598 1.725375 7.902590 1.998973 1.558782 -179.652163 53.709154 -157.036571 0.000000 0.000000 0.000000 -1.488268 14.863055 -1.161378 16.857821 19.721011 -10.303792 30.797257 32.502581 12.941038 0.000000 0.000000 0.000000 -13.335804 4.546774 -2.319122 -13.160212 3.643800 -0.548369 -12.673758 -5.587145 -3.694249 0.000000 0.000000 0.000000 -6.303845 -10.007670 -0.215731 -5.976789 24.332542 7.050298 -2.472725 -9.155776 -4.429022 0.000000 0.000000 0.000000 
469.784058 -36.657429 1121.869995 21.046478 -1.032834 -0.494487 -0.142438 3.117157 8.095894 0.085417 -0.221238 -1.347415 0.241202 0.568821 1.227708 -0.824533 3.522509 1.086567 0.000000 0.000000 0.000000 -3.581624 3.152233 1.780880 8.126304 2.273440 1.264115 -179.520541 52.636658 -158.862241 0.000000 0.000000 0.000000 -1.751905 14.157702 -1.412027 14.831215 17.800315 -9.303158 26.333932 28.503353 8.712245 0.000000 0.000000 0.000000 -13.493370 4.006323 -1.978891 -13.420248 5.505414 -1.092046 -12.911238 -5.614309 -3.759453 0.000000 0.000000 0.000000 -6.580475 -11.196934 -1.166373 -6.328276 27.203810 8.727155 -2.208645 -8.970606 -4.246726 0.000000 0.000000 0.000000 
484.626526 -34.544666 1124.907959 21.838470 -0.740813 -0.797990 -0.101997 2.796036 8.386375 0.124129 -0.244210 -1.448003 0.288963 0.570247 1.250405 -0.864186 3.794875 1.111313 0.000000 0.000000 0.000000 -3.028349 2.869276 2.274547 9.172026 2.053836 0.357540 -179.340010 50.621707 -162.092384 0.000000 0.000000 0.000000 -2.288526 12.557564 -1.411156 13.053106 16.008164 -9.696426 24.829536 26.068833 9.215407 0.000000 0.000000 0.000000 -13.452595 2.747302 -1.376131 -13.644641 8.768763 -2.205611 -13.129354 -5.173616 -3.975896 0.000000 0.000000 0.000000 -6.747278 -11.453472 -1.244421 -6.477991 28.517450 9.228197 -2.016858 -8.112733 -3.853296 0.000000 0.000000 0.000000 
500.488251 -33.104115 1129.188965 22.478531 -0.472118 -1.038578 -0.097919 2.399899 8.086762 0.066334 -0.275452 -1.415417 0.226759 0.593266 1.284276 -0.969003 4.231668 1.367500 0.000000 0.000000 0.000000 -2.434599 2.241475 3.313503 11.287941 1.610026 -1.432649 -178.739445 47.868274 -166.773433 0.000000 0.000000 0.000000 -3.100192 10.235227 -1.641436 11.162801 13.934476 -10.360288 25.180677 25.226009 13.047965 0.000000 0.000000 0.000000 -13.281388 0.822524 -0.737919 -13.843397 13.129087 -3.668595 -13.348449 -3.978516 -4.445388 0.000000 0.000000 0.000000 -6.799251 -11.117417 -0.889067 -6.442208 28.721632 9.041861 -1.840909 -6.739057 -3.281117 0.000000 0.000000 0.000000 
515.619812 -31.683958 1133.413940 23.103689 -0.218693 -1.300913 -0.164823 2.219990 7.815445 -0.069847 -0.298111 -1.429452 0.092017 0.628799 1.306437 -1.054112 4.590809 1.606814 0.000000 0.000000 0.000000 -1.767893 1.417077 4.395653 13.385405 1.248062 -3.337586 -177.946376 45.697098 -170.989673 0.000000 0.000000 0.000000 -4.159393 8.152108 -2.256986 9.420378 12.085474 -11.045609 26.448706 25.485946 17.492672 0.000000 0.000000 0.000000 -13.140900 -1.783841 -0.024359 -14.088679 18.338608 -5.591623 -13.637681 -2.495297 -5.015788 0.000000 0.000000 0.000000 -6.887640 -10.663868 -0.449144 -6.400863 28.657310 8.817191 -1.698516 -5.411181 -2.740734 0.000000 0.000000 0.000000 
528.566223 -29.811394 1136.774048 23.677699 0.043394 -1.617646 -0.312626 2.416660 7.916691 -0.287057 -0.230540 -1.564747 -0.102270 0.661334 1.298146 -1.053202 4.697675 1.627380 0.000000 0.000000 0.000000 -0.965670 0.333428 4.827520 14.134603 0.805055 -4.302456 -177.738105 44.384130 -173.380977 0.000000 0.000000 0.000000 -5.507995 6.947150 -2.954651 8.187573 11.174535 -12.602950 28.509478 26.390125 21.233553 0.000000 0.000000 0.000000 -13.185473 -5.542790 0.815884 -14.454271 25.056317 -8.426157 -14.098317 -0.849387 -5.658198 0.000000 0.000000 0.000000 -7.143004 -10.389462 -0.201424 -6.471826 28.825309 9.015616 -1.589889 -4.532440 -2.380014 0.000000 0.000000 0.000000 
